ply
format ascii 1.0
element vertex 100
property float x
property float y
property float z
element face 200
property list uchar int vertex_indices
end_header
18.0 0.0 -35.0
17.858064623660603 4.1359967076220405 -35.0
17.43449690031536 8.206766276440208 -35.0
16.735976745988527 12.148110238594372 -35.0
15.773520240789544 15.897871245356606 -35.0
14.562305898749054 19.396913325651614 -35.0
13.121435293585408 22.590054495646726 -35.0
11.473631815476416 25.426937011601044 -35.0
9.644882309621938 27.862821541566497 -35.0
7.664027248171308 29.859292731378645 -35.0
5.562305898749054 31.384865037740067 -35.0
3.3728636625430455 32.415479274046724 -35.0
1.1302293515276434 32.93488203813296 -35.0
-1.1302293515276411 32.93488203813296 -35.0
-3.372863662543043 32.415479274046724 -35.0
-5.562305898749048 31.38486503774007 -35.0
-7.664027248171309 29.85929273137864 -35.0
-9.644882309621943 27.862821541566493 -35.0
-11.473631815476416 25.426937011601044 -35.0
-13.121435293585403 22.590054495646733 -35.0
-14.562305898749052 19.396913325651617 -35.0
-15.773520240789544 15.897871245356601 -35.0
-16.735976745988523 12.148110238594379 -35.0
-17.434496900315356 8.206766276440224 -35.0
-17.8580646236606 4.135996707622049 -35.0
-18.0 4.0413344371862654e-15 -35.0
-17.858064623660603 -4.135996707622041 -35.0
-17.434496900315363 -8.2067662764402 -35.0
-16.735976745988527 -12.148110238594372 -35.0
-15.773520240789544 -15.897871245356608 -35.0
-14.56230589874906 -19.3969133256516 -35.0
-13.121435293585414 -22.59005449564672 -35.0
-11.473631815476411 -25.426937011601048 -35.0
-9.644882309621934 -27.862821541566504 -35.0
-7.6640272481712985 -29.859292731378652 -35.0
-5.562305898749056 -31.384865037740067 -35.0
-3.3728636625430433 -32.415479274046724 -35.0
-1.1302293515276378 -32.93488203813296 -35.0
1.130229351527631 -32.93488203813296 -35.0
3.372863662543037 -32.415479274046724 -35.0
5.562305898749051 -31.38486503774007 -35.0
7.664027248171293 -29.859292731378655 -35.0
9.644882309621941 -27.862821541566493 -35.0
11.473631815476407 -25.426937011601055 -35.0
13.121435293585401 -22.590054495646736 -35.0
14.562305898749052 -19.39691332565162 -35.0
15.773520240789537 -15.897871245356631 -35.0
16.735976745988527 -12.14811023859437 -35.0
17.434496900315356 -8.206766276440227 -35.0
17.8580646236606 -4.135996707622053 -35.0
18.0 0.0 35.0
17.858064623660603 3.1333308391076065 35.0
17.43449690031536 6.21724717912137 35.0
16.735976745988527 9.203113817116948 35.0
15.773520240789544 12.043841852542883 35.0
14.562305898749054 14.694631307311829 35.0
13.121435293585408 17.113677648217216 35.0
11.473631815476416 19.262831069394732 35.0
9.644882309621938 21.108198137550378 35.0
7.664027248171308 22.620676311650488 35.0
5.562305898749054 23.776412907378838 35.0
3.3728636625430455 24.557181268217214 35.0
1.1302293515276434 24.950668210706787 35.0
-1.1302293515276411 24.950668210706787 35.0
-3.372863662543043 24.557181268217217 35.0
-5.562305898749048 23.77641290737884 35.0
-7.664027248171309 22.620676311650488 35.0
-9.644882309621943 21.108198137550374 35.0
-11.473631815476416 19.262831069394732 35.0
-13.121435293585403 17.11367764821722 35.0
-14.562305898749052 14.69463130731183 35.0
-15.773520240789544 12.04384185254288 35.0
-16.735976745988523 9.203113817116954 35.0
-17.434496900315356 6.217247179121381 35.0
-17.8580646236606 3.1333308391076136 35.0
-18.0 3.061616997868383e-15 35.0
-17.858064623660603 -3.1333308391076073 35.0
-17.434496900315363 -6.217247179121364 35.0
-16.735976745988527 -9.203113817116948 35.0
-15.773520240789544 -12.043841852542885 35.0
-14.56230589874906 -14.694631307311818 35.0
-13.121435293585414 -17.11367764821721 35.0
-11.473631815476411 -19.262831069394736 35.0
-9.644882309621934 -21.10819813755038 35.0
-7.6640272481712985 -22.620676311650495 35.0
-5.562305898749056 -23.776412907378838 35.0
-3.3728636625430433 -24.557181268217217 35.0
-1.1302293515276378 -24.950668210706787 35.0
1.130229351527631 -24.950668210706787 35.0
3.372863662543037 -24.557181268217217 35.0
5.562305898749051 -23.77641290737884 35.0
7.664027248171293 -22.6206763116505 35.0
9.644882309621941 -21.108198137550374 35.0
11.473631815476407 -19.26283106939474 35.0
13.121435293585401 -17.113677648217223 35.0
14.562305898749052 -14.694631307311834 35.0
15.773520240789537 -12.043841852542903 35.0
16.735976745988527 -9.203113817116947 35.0
17.434496900315356 -6.217247179121384 35.0
17.8580646236606 -3.1333308391076162 35.0
3 0 1 50
3 1 51 50
3 1 2 51
3 2 52 51
3 2 3 52
3 3 53 52
3 3 4 53
3 4 54 53
3 4 5 54
3 5 55 54
3 5 6 55
3 6 56 55
3 6 7 56
3 7 57 56
3 7 8 57
3 8 58 57
3 8 9 58
3 9 59 58
3 9 10 59
3 10 60 59
3 10 11 60
3 11 61 60
3 11 12 61
3 12 62 61
3 12 13 62
3 13 63 62
3 13 14 63
3 14 64 63
3 14 15 64
3 15 65 64
3 15 16 65
3 16 66 65
3 16 17 66
3 17 67 66
3 17 18 67
3 18 68 67
3 18 19 68
3 19 69 68
3 19 20 69
3 20 70 69
3 20 21 70
3 21 71 70
3 21 22 71
3 22 72 71
3 22 23 72
3 23 73 72
3 23 24 73
3 24 74 73
3 24 25 74
3 25 75 74
3 25 26 75
3 26 76 75
3 26 27 76
3 27 77 76
3 27 28 77
3 28 78 77
3 28 29 78
3 29 79 78
3 29 30 79
3 30 80 79
3 30 31 80
3 31 81 80
3 31 32 81
3 32 82 81
3 32 33 82
3 33 83 82
3 33 34 83
3 34 84 83
3 34 35 84
3 35 85 84
3 35 36 85
3 36 86 85
3 36 37 86
3 37 87 86
3 37 38 87
3 38 88 87
3 38 39 88
3 39 89 88
3 39 40 89
3 40 90 89
3 40 41 90
3 41 91 90
3 41 42 91
3 42 92 91
3 42 43 92
3 43 93 92
3 43 44 93
3 44 94 93
3 44 45 94
3 45 95 94
3 45 46 95
3 46 96 95
3 46 47 96
3 47 97 96
3 47 48 97
3 48 98 97
3 48 49 98
3 49 99 98
3 49 0 99
3 0 50 99
3 0 25 1
3 1 26 2
3 2 27 3
3 3 28 4
3 4 29 5
3 5 30 6
3 6 31 7
3 7 32 8
3 8 33 9
3 9 34 10
3 10 35 11
3 11 36 12
3 12 37 13
3 13 38 14
3 14 39 15
3 15 40 16
3 16 41 17
3 17 42 18
3 18 43 19
3 19 44 20
3 20 45 21
3 21 46 22
3 22 47 23
3 23 48 24
3 24 49 25
3 25 0 26
3 26 1 27
3 27 2 28
3 28 3 29
3 29 4 30
3 30 5 31
3 31 6 32
3 32 7 33
3 33 8 34
3 34 9 35
3 35 10 36
3 36 11 37
3 37 12 38
3 38 13 39
3 39 14 40
3 40 15 41
3 41 16 42
3 42 17 43
3 43 18 44
3 44 19 45
3 45 20 46
3 46 21 47
3 47 22 48
3 48 23 49
3 49 24 0
3 51 75 50
3 52 76 51
3 53 77 52
3 54 78 53
3 55 79 54
3 56 80 55
3 57 81 56
3 58 82 57
3 59 83 58
3 60 84 59
3 61 85 60
3 62 86 61
3 63 87 62
3 64 88 63
3 65 89 64
3 66 90 65
3 67 91 66
3 68 92 67
3 69 93 68
3 70 94 69
3 71 95 70
3 72 96 71
3 73 97 72
3 74 98 73
3 75 99 74
3 76 50 75
3 77 51 76
3 78 52 77
3 79 53 78
3 80 54 79
3 81 55 80
3 82 56 81
3 83 57 82
3 84 58 83
3 85 59 84
3 86 60 85
3 87 61 86
3 88 62 87
3 89 63 88
3 90 64 89
3 91 65 90
3 92 66 91
3 93 67 92
3 94 68 93
3 95 69 94
3 96 70 95
3 97 71 96
3 98 72 97
3 99 73 98
3 50 74 99
