ply
format ascii 1.0
element vertex 100
property float x
property float y
property float z
element face 200
property list uchar int vertex_indices
end_header
10.0 -16.0 153.0
9.921147013144779 -14.80933428113911 153.0
9.68583161128631 -13.63744607193388 153.0
9.297764858882514 -12.50281674949556 153.0
8.763066800438637 -11.423340096033705 153.0
8.090169943749475 -10.416040103221505 153.0
7.289686274214116 -9.496802493677457 153.0
6.3742398974868975 -8.680124193630002 153.0
5.3582679497899655 -7.978884707730856 153.0
4.257792915650727 -7.404143001572814 153.0
3.0901699437494745 -6.964963095196042 153.0
1.8738131458572473 -6.668271118077458 153.0
0.6279051952931353 -6.51874607993142 153.0
-0.627905195293134 -6.51874607993142 153.0
-1.873813145857246 -6.668271118077458 153.0
-3.090169943749471 -6.96496309519604 153.0
-4.257792915650727 -7.404143001572814 153.0
-5.358267949789969 -7.978884707730858 153.0
-6.3742398974868975 -8.680124193630002 153.0
-7.289686274214113 -9.496802493677457 153.0
-8.090169943749473 -10.416040103221505 153.0
-8.763066800438637 -11.423340096033705 153.0
-9.297764858882513 -12.502816749495558 153.0
-9.685831611286309 -13.637446071933875 153.0
-9.921147013144777 -14.809334281139106 153.0
-10.0 -15.999999999999998 153.0
-9.921147013144779 -17.190665718860892 153.0
-9.685831611286313 -18.36255392806612 153.0
-9.297764858882514 -19.497183250504442 153.0
-8.763066800438637 -20.576659903966295 153.0
-8.090169943749478 -21.58395989677849 153.0
-7.289686274214119 -22.50319750632254 153.0
-6.374239897486895 -23.31987580637 153.0
-5.358267949789964 -24.021115292269144 153.0
-4.257792915650722 -24.595856998427188 153.0
-3.0901699437494754 -25.03503690480396 153.0
-1.8738131458572462 -25.331728881922544 153.0
-0.627905195293132 -25.481253920068582 153.0
0.6279051952931283 -25.481253920068582 153.0
1.8738131458572427 -25.331728881922544 153.0
3.0901699437494723 -25.03503690480396 153.0
4.257792915650718 -24.595856998427188 153.0
5.358267949789967 -24.021115292269144 153.0
6.374239897486893 -23.31987580637 153.0
7.289686274214112 -22.503197506322543 153.0
8.090169943749473 -21.583959896778495 153.0
8.763066800438631 -20.576659903966302 153.0
9.297764858882514 -19.49718325050444 153.0
9.685831611286309 -18.362553928066127 153.0
9.921147013144777 -17.190665718860895 153.0
10.0 -16.0 223.0
9.921147013144779 -15.022400778198428 223.0
9.68583161128631 -14.060218880114132 223.0
9.297764858882514 -13.128628489059512 223.0
8.763066800438637 -12.24232134200662 223.0
8.090169943749475 -11.41527503211871 223.0
7.289686274214116 -10.660532573756228 223.0
6.3742398974868975 -9.989996706348844 223.0
5.3582679497899655 -9.414242181084283 223.0
4.257792915650727 -8.942348990765048 223.0
3.0901699437494745 -8.581759172897803 223.0
1.8738131458572473 -8.33815944431623 223.0
0.6279051952931353 -8.215391518259482 223.0
-0.627905195293134 -8.215391518259482 223.0
-1.873813145857246 -8.33815944431623 223.0
-3.090169943749471 -8.5817591728978 223.0
-4.257792915650727 -8.942348990765048 223.0
-5.358267949789969 -9.414242181084283 223.0
-6.3742398974868975 -9.989996706348844 223.0
-7.289686274214113 -10.660532573756228 223.0
-8.090169943749473 -11.415275032118709 223.0
-8.763066800438637 -12.24232134200662 223.0
-9.297764858882513 -13.12862848905951 223.0
-9.685831611286309 -14.06021888011413 223.0
-9.921147013144777 -15.022400778198424 223.0
-10.0 -15.999999999999998 223.0
-9.921147013144779 -16.977599221801572 223.0
-9.685831611286313 -17.939781119885865 223.0
-9.297764858882514 -18.871371510940488 223.0
-8.763066800438637 -19.75767865799338 223.0
-8.090169943749478 -20.584724967881286 223.0
-7.289686274214119 -21.33946742624377 223.0
-6.374239897486895 -22.010003293651156 223.0
-5.358267949789964 -22.58575781891572 223.0
-4.257792915650722 -23.057651009234952 223.0
-3.0901699437494754 -23.418240827102196 223.0
-1.8738131458572462 -23.66184055568377 223.0
-0.627905195293132 -23.78460848174052 223.0
0.6279051952931283 -23.78460848174052 223.0
1.8738131458572427 -23.66184055568377 223.0
3.0901699437494723 -23.4182408271022 223.0
4.257792915650718 -23.057651009234956 223.0
5.358267949789967 -22.585757818915717 223.0
6.374239897486893 -22.01000329365116 223.0
7.289686274214112 -21.339467426243772 223.0
8.090169943749473 -20.584724967881293 223.0
8.763066800438631 -19.757678657993385 223.0
9.297764858882514 -18.871371510940488 223.0
9.685831611286309 -17.939781119885872 223.0
9.921147013144777 -16.977599221801576 223.0
3 0 1 50
3 1 51 50
3 1 2 51
3 2 52 51
3 2 3 52
3 3 53 52
3 3 4 53
3 4 54 53
3 4 5 54
3 5 55 54
3 5 6 55
3 6 56 55
3 6 7 56
3 7 57 56
3 7 8 57
3 8 58 57
3 8 9 58
3 9 59 58
3 9 10 59
3 10 60 59
3 10 11 60
3 11 61 60
3 11 12 61
3 12 62 61
3 12 13 62
3 13 63 62
3 13 14 63
3 14 64 63
3 14 15 64
3 15 65 64
3 15 16 65
3 16 66 65
3 16 17 66
3 17 67 66
3 17 18 67
3 18 68 67
3 18 19 68
3 19 69 68
3 19 20 69
3 20 70 69
3 20 21 70
3 21 71 70
3 21 22 71
3 22 72 71
3 22 23 72
3 23 73 72
3 23 24 73
3 24 74 73
3 24 25 74
3 25 75 74
3 25 26 75
3 26 76 75
3 26 27 76
3 27 77 76
3 27 28 77
3 28 78 77
3 28 29 78
3 29 79 78
3 29 30 79
3 30 80 79
3 30 31 80
3 31 81 80
3 31 32 81
3 32 82 81
3 32 33 82
3 33 83 82
3 33 34 83
3 34 84 83
3 34 35 84
3 35 85 84
3 35 36 85
3 36 86 85
3 36 37 86
3 37 87 86
3 37 38 87
3 38 88 87
3 38 39 88
3 39 89 88
3 39 40 89
3 40 90 89
3 40 41 90
3 41 91 90
3 41 42 91
3 42 92 91
3 42 43 92
3 43 93 92
3 43 44 93
3 44 94 93
3 44 45 94
3 45 95 94
3 45 46 95
3 46 96 95
3 46 47 96
3 47 97 96
3 47 48 97
3 48 98 97
3 48 49 98
3 49 99 98
3 49 0 99
3 0 50 99
3 0 25 1
3 1 26 2
3 2 27 3
3 3 28 4
3 4 29 5
3 5 30 6
3 6 31 7
3 7 32 8
3 8 33 9
3 9 34 10
3 10 35 11
3 11 36 12
3 12 37 13
3 13 38 14
3 14 39 15
3 15 40 16
3 16 41 17
3 17 42 18
3 18 43 19
3 19 44 20
3 20 45 21
3 21 46 22
3 22 47 23
3 23 48 24
3 24 49 25
3 25 0 26
3 26 1 27
3 27 2 28
3 28 3 29
3 29 4 30
3 30 5 31
3 31 6 32
3 32 7 33
3 33 8 34
3 34 9 35
3 35 10 36
3 36 11 37
3 37 12 38
3 38 13 39
3 39 14 40
3 40 15 41
3 41 16 42
3 42 17 43
3 43 18 44
3 44 19 45
3 45 20 46
3 46 21 47
3 47 22 48
3 48 23 49
3 49 24 0
3 51 75 50
3 52 76 51
3 53 77 52
3 54 78 53
3 55 79 54
3 56 80 55
3 57 81 56
3 58 82 57
3 59 83 58
3 60 84 59
3 61 85 60
3 62 86 61
3 63 87 62
3 64 88 63
3 65 89 64
3 66 90 65
3 67 91 66
3 68 92 67
3 69 93 68
3 70 94 69
3 71 95 70
3 72 96 71
3 73 97 72
3 74 98 73
3 75 99 74
3 76 50 75
3 77 51 76
3 78 52 77
3 79 53 78
3 80 54 79
3 81 55 80
3 82 56 81
3 83 57 82
3 84 58 83
3 85 59 84
3 86 60 85
3 87 61 86
3 88 62 87
3 89 63 88
3 90 64 89
3 91 65 90
3 92 66 91
3 93 67 92
3 94 68 93
3 95 69 94
3 96 70 95
3 97 71 96
3 98 72 97
3 99 73 98
3 50 74 99
