ply
format ascii 1.0
element vertex 100
property float x
property float y
property float z
element face 200
property list uchar int vertex_indices
end_header
10.0 16.0 85.0
9.921147013144779 17.69199865311811 85.0
9.68583161128631 19.35731347672554 85.0
9.297764858882514 20.96968146124315 85.0
8.763066800438637 22.503674600373156 85.0
8.090169943749475 23.93510090594839 85.0
7.289686274214116 25.241385930037296 85.0
6.3742398974868975 26.401928777473152 85.0
5.3582679497899655 27.3984269942772 85.0
4.257792915650727 28.215165208291264 85.0
3.0901699437494745 28.839262969984574 85.0
1.8738131458572473 29.260877884837296 85.0
0.6279051952931353 29.473360833781665 85.0
-0.627905195293134 29.473360833781665 85.0
-1.873813145857246 29.2608778848373 85.0
-3.090169943749471 28.839262969984574 85.0
-4.257792915650727 28.21516520829126 85.0
-5.358267949789969 27.3984269942772 85.0
-6.3742398974868975 26.401928777473152 85.0
-7.289686274214113 25.2413859300373 85.0
-8.090169943749473 23.93510090594839 85.0
-8.763066800438637 22.503674600373156 85.0
-9.297764858882513 20.969681461243155 85.0
-9.685831611286309 19.357313476725544 85.0
-9.921147013144777 17.691998653118112 85.0
-10.0 16.0 85.0
-9.921147013144779 14.308001346881891 85.0
-9.685831611286313 12.642686523274463 85.0
-9.297764858882514 11.030318538756848 85.0
-8.763066800438637 9.496325399626842 85.0
-8.090169943749478 8.064899094051619 85.0
-7.289686274214119 6.758614069962707 85.0
-6.374239897486895 5.598071222526844 85.0
-5.358267949789964 4.601573005722793 85.0
-4.257792915650722 3.7848347917087324 85.0
-3.0901699437494754 3.1607370300154276 85.0
-1.8738131458572462 2.7391221151627025 85.0
-0.627905195293132 2.5266391662183345 85.0
0.6279051952931283 2.5266391662183345 85.0
1.8738131458572427 2.7391221151627025 85.0
3.0901699437494723 3.160737030015426 85.0
4.257792915650718 3.7848347917087306 85.0
5.358267949789967 4.601573005722798 85.0
6.374239897486893 5.5980712225268405 85.0
7.289686274214112 6.758614069962698 85.0
8.090169943749473 8.06489909405161 85.0
8.763066800438631 9.496325399626834 85.0
9.297764858882514 11.030318538756848 85.0
9.685831611286309 12.642686523274453 85.0
9.921147013144777 14.308001346881888 85.0
10.0 16.0 145.0
9.921147013144779 17.228265688930183 145.0
9.68583161128631 18.437160894215577 145.0
9.297764858882514 19.607620616309845 145.0
8.763066800438637 20.72118600619681 145.0
8.090169943749475 21.760295472466236 145.0
7.289686274214116 22.70856163810115 145.0
6.3742398974868975 23.551029779202736 145.0
5.3582679497899655 24.27441366991975 145.0
4.257792915650727 24.867305114166992 145.0
3.0901699437494745 25.320353859692503 145.0
1.8738131458572473 25.62641505714115 145.0
0.6279051952931353 25.780661938597063 145.0
-0.627905195293134 25.780661938597063 145.0
-1.873813145857246 25.626415057141152 145.0
-3.090169943749471 25.320353859692506 145.0
-4.257792915650727 24.86730511416699 145.0
-5.358267949789969 24.274413669919745 145.0
-6.3742398974868975 23.551029779202736 145.0
-7.289686274214113 22.708561638101152 145.0
-8.090169943749473 21.76029547246624 145.0
-8.763066800438637 20.72118600619681 145.0
-9.297764858882513 19.607620616309845 145.0
-9.685831611286309 18.43716089421558 145.0
-9.921147013144777 17.228265688930186 145.0
-10.0 16.0 145.0
-9.921147013144779 14.771734311069817 145.0
-9.685831611286313 13.562839105784425 145.0
-9.297764858882514 12.392379383690155 145.0
-8.763066800438637 11.278813993803189 145.0
-8.090169943749478 10.239704527533767 145.0
-7.289686274214119 9.291438361898853 145.0
-6.374239897486895 8.448970220797264 145.0
-5.358267949789964 7.725586330080249 145.0
-4.257792915650722 7.132694885833006 145.0
-3.0901699437494754 6.679646140307495 145.0
-1.8738131458572462 6.37358494285885 145.0
-0.627905195293132 6.219338061402938 145.0
0.6279051952931283 6.219338061402938 145.0
1.8738131458572427 6.37358494285885 145.0
3.0901699437494723 6.679646140307494 145.0
4.257792915650718 7.132694885833004 145.0
5.358267949789967 7.725586330080253 145.0
6.374239897486893 8.44897022079726 145.0
7.289686274214112 9.291438361898848 145.0
8.090169943749473 10.23970452753376 145.0
8.763066800438631 11.278813993803182 145.0
9.297764858882514 12.392379383690157 145.0
9.685831611286309 13.562839105784418 145.0
9.921147013144777 14.771734311069814 145.0
3 0 1 50
3 1 51 50
3 1 2 51
3 2 52 51
3 2 3 52
3 3 53 52
3 3 4 53
3 4 54 53
3 4 5 54
3 5 55 54
3 5 6 55
3 6 56 55
3 6 7 56
3 7 57 56
3 7 8 57
3 8 58 57
3 8 9 58
3 9 59 58
3 9 10 59
3 10 60 59
3 10 11 60
3 11 61 60
3 11 12 61
3 12 62 61
3 12 13 62
3 13 63 62
3 13 14 63
3 14 64 63
3 14 15 64
3 15 65 64
3 15 16 65
3 16 66 65
3 16 17 66
3 17 67 66
3 17 18 67
3 18 68 67
3 18 19 68
3 19 69 68
3 19 20 69
3 20 70 69
3 20 21 70
3 21 71 70
3 21 22 71
3 22 72 71
3 22 23 72
3 23 73 72
3 23 24 73
3 24 74 73
3 24 25 74
3 25 75 74
3 25 26 75
3 26 76 75
3 26 27 76
3 27 77 76
3 27 28 77
3 28 78 77
3 28 29 78
3 29 79 78
3 29 30 79
3 30 80 79
3 30 31 80
3 31 81 80
3 31 32 81
3 32 82 81
3 32 33 82
3 33 83 82
3 33 34 83
3 34 84 83
3 34 35 84
3 35 85 84
3 35 36 85
3 36 86 85
3 36 37 86
3 37 87 86
3 37 38 87
3 38 88 87
3 38 39 88
3 39 89 88
3 39 40 89
3 40 90 89
3 40 41 90
3 41 91 90
3 41 42 91
3 42 92 91
3 42 43 92
3 43 93 92
3 43 44 93
3 44 94 93
3 44 45 94
3 45 95 94
3 45 46 95
3 46 96 95
3 46 47 96
3 47 97 96
3 47 48 97
3 48 98 97
3 48 49 98
3 49 99 98
3 49 0 99
3 0 50 99
3 0 25 1
3 1 26 2
3 2 27 3
3 3 28 4
3 4 29 5
3 5 30 6
3 6 31 7
3 7 32 8
3 8 33 9
3 9 34 10
3 10 35 11
3 11 36 12
3 12 37 13
3 13 38 14
3 14 39 15
3 15 40 16
3 16 41 17
3 17 42 18
3 18 43 19
3 19 44 20
3 20 45 21
3 21 46 22
3 22 47 23
3 23 48 24
3 24 49 25
3 25 0 26
3 26 1 27
3 27 2 28
3 28 3 29
3 29 4 30
3 30 5 31
3 31 6 32
3 32 7 33
3 33 8 34
3 34 9 35
3 35 10 36
3 36 11 37
3 37 12 38
3 38 13 39
3 39 14 40
3 40 15 41
3 41 16 42
3 42 17 43
3 43 18 44
3 44 19 45
3 45 20 46
3 46 21 47
3 47 22 48
3 48 23 49
3 49 24 0
3 51 75 50
3 52 76 51
3 53 77 52
3 54 78 53
3 55 79 54
3 56 80 55
3 57 81 56
3 58 82 57
3 59 83 58
3 60 84 59
3 61 85 60
3 62 86 61
3 63 87 62
3 64 88 63
3 65 89 64
3 66 90 65
3 67 91 66
3 68 92 67
3 69 93 68
3 70 94 69
3 71 95 70
3 72 96 71
3 73 97 72
3 74 98 73
3 75 99 74
3 76 50 75
3 77 51 76
3 78 52 77
3 79 53 78
3 80 54 79
3 81 55 80
3 82 56 81
3 83 57 82
3 84 58 83
3 85 59 84
3 86 60 85
3 87 61 86
3 88 62 87
3 89 63 88
3 90 64 89
3 91 65 90
3 92 66 91
3 93 67 92
3 94 68 93
3 95 69 94
3 96 70 95
3 97 71 96
3 98 72 97
3 99 73 98
3 50 74 99
