ply
format ascii 1.0
element vertex 100
property float x
property float y
property float z
element face 200
property list uchar int vertex_indices
end_header
18.0 0.0 45.0
17.858064623660603 3.1333308391076065 45.0
17.43449690031536 6.21724717912137 45.0
16.735976745988527 9.203113817116948 45.0
15.773520240789544 12.043841852542883 45.0
14.562305898749054 14.694631307311829 45.0
13.121435293585408 17.113677648217216 45.0
11.473631815476416 19.262831069394732 45.0
9.644882309621938 21.108198137550378 45.0
7.664027248171308 22.620676311650488 45.0
5.562305898749054 23.776412907378838 45.0
3.3728636625430455 24.557181268217214 45.0
1.1302293515276434 24.950668210706787 45.0
-1.1302293515276411 24.950668210706787 45.0
-3.372863662543043 24.557181268217217 45.0
-5.562305898749048 23.77641290737884 45.0
-7.664027248171309 22.620676311650488 45.0
-9.644882309621943 21.108198137550374 45.0
-11.473631815476416 19.262831069394732 45.0
-13.121435293585403 17.11367764821722 45.0
-14.562305898749052 14.69463130731183 45.0
-15.773520240789544 12.04384185254288 45.0
-16.735976745988523 9.203113817116954 45.0
-17.434496900315356 6.217247179121381 45.0
-17.8580646236606 3.1333308391076136 45.0
-18.0 3.061616997868383e-15 45.0
-17.858064623660603 -3.1333308391076073 45.0
-17.434496900315363 -6.217247179121364 45.0
-16.735976745988527 -9.203113817116948 45.0
-15.773520240789544 -12.043841852542885 45.0
-14.56230589874906 -14.694631307311818 45.0
-13.121435293585414 -17.11367764821721 45.0
-11.473631815476411 -19.262831069394736 45.0
-9.644882309621934 -21.10819813755038 45.0
-7.6640272481712985 -22.620676311650495 45.0
-5.562305898749056 -23.776412907378838 45.0
-3.3728636625430433 -24.557181268217217 45.0
-1.1302293515276378 -24.950668210706787 45.0
1.130229351527631 -24.950668210706787 45.0
3.372863662543037 -24.557181268217217 45.0
5.562305898749051 -23.77641290737884 45.0
7.664027248171293 -22.6206763116505 45.0
9.644882309621941 -21.108198137550374 45.0
11.473631815476407 -19.26283106939474 45.0
13.121435293585401 -17.113677648217223 45.0
14.562305898749052 -14.694631307311834 45.0
15.773520240789537 -12.043841852542903 45.0
16.735976745988527 -9.203113817116947 45.0
17.434496900315356 -6.217247179121384 45.0
17.8580646236606 -3.1333308391076162 45.0
18.0 0.0 75.0
17.858064623660603 3.7599970069291277 75.0
17.43449690031536 7.460696614945644 75.0
16.735976745988527 11.043736580540337 75.0
15.773520240789544 14.45261022305146 75.0
14.562305898749054 17.633557568774194 75.0
13.121435293585408 20.53641317786066 75.0
11.473631815476416 23.115397283273676 75.0
9.644882309621938 25.329837765060454 75.0
7.664027248171308 27.144811573980586 75.0
5.562305898749054 28.531695488854606 75.0
3.3728636625430455 29.468617521860658 75.0
1.1302293515276434 29.940801852848146 75.0
-1.1302293515276411 29.940801852848146 75.0
-3.372863662543043 29.46861752186066 75.0
-5.562305898749048 28.53169548885461 75.0
-7.664027248171309 27.144811573980583 75.0
-9.644882309621943 25.32983776506045 75.0
-11.473631815476416 23.115397283273676 75.0
-13.121435293585403 20.536413177860666 75.0
-14.562305898749052 17.633557568774197 75.0
-15.773520240789544 14.452610223051456 75.0
-16.735976745988523 11.043736580540344 75.0
-17.434496900315356 7.4606966149456575 75.0
-17.8580646236606 3.759997006929136 75.0
-18.0 3.67394039744206e-15 75.0
-17.858064623660603 -3.7599970069291286 75.0
-17.434496900315363 -7.460696614945637 75.0
-16.735976745988527 -11.043736580540337 75.0
-15.773520240789544 -14.452610223051462 75.0
-14.56230589874906 -17.63355756877418 75.0
-13.121435293585414 -20.536413177860652 75.0
-11.473631815476411 -23.11539728327368 75.0
-9.644882309621934 -25.32983776506046 75.0
-7.6640272481712985 -27.144811573980594 75.0
-5.562305898749056 -28.531695488854606 75.0
-3.3728636625430433 -29.46861752186066 75.0
-1.1302293515276378 -29.940801852848146 75.0
1.130229351527631 -29.940801852848146 75.0
3.372863662543037 -29.46861752186066 75.0
5.562305898749051 -28.53169548885461 75.0
7.664027248171293 -27.144811573980597 75.0
9.644882309621941 -25.32983776506045 75.0
11.473631815476407 -23.115397283273687 75.0
13.121435293585401 -20.53641317786067 75.0
14.562305898749052 -17.6335575687742 75.0
15.773520240789537 -14.452610223051483 75.0
16.735976745988527 -11.043736580540337 75.0
17.434496900315356 -7.46069661494566 75.0
17.8580646236606 -3.7599970069291393 75.0
3 0 1 50
3 1 51 50
3 1 2 51
3 2 52 51
3 2 3 52
3 3 53 52
3 3 4 53
3 4 54 53
3 4 5 54
3 5 55 54
3 5 6 55
3 6 56 55
3 6 7 56
3 7 57 56
3 7 8 57
3 8 58 57
3 8 9 58
3 9 59 58
3 9 10 59
3 10 60 59
3 10 11 60
3 11 61 60
3 11 12 61
3 12 62 61
3 12 13 62
3 13 63 62
3 13 14 63
3 14 64 63
3 14 15 64
3 15 65 64
3 15 16 65
3 16 66 65
3 16 17 66
3 17 67 66
3 17 18 67
3 18 68 67
3 18 19 68
3 19 69 68
3 19 20 69
3 20 70 69
3 20 21 70
3 21 71 70
3 21 22 71
3 22 72 71
3 22 23 72
3 23 73 72
3 23 24 73
3 24 74 73
3 24 25 74
3 25 75 74
3 25 26 75
3 26 76 75
3 26 27 76
3 27 77 76
3 27 28 77
3 28 78 77
3 28 29 78
3 29 79 78
3 29 30 79
3 30 80 79
3 30 31 80
3 31 81 80
3 31 32 81
3 32 82 81
3 32 33 82
3 33 83 82
3 33 34 83
3 34 84 83
3 34 35 84
3 35 85 84
3 35 36 85
3 36 86 85
3 36 37 86
3 37 87 86
3 37 38 87
3 38 88 87
3 38 39 88
3 39 89 88
3 39 40 89
3 40 90 89
3 40 41 90
3 41 91 90
3 41 42 91
3 42 92 91
3 42 43 92
3 43 93 92
3 43 44 93
3 44 94 93
3 44 45 94
3 45 95 94
3 45 46 95
3 46 96 95
3 46 47 96
3 47 97 96
3 47 48 97
3 48 98 97
3 48 49 98
3 49 99 98
3 49 0 99
3 0 50 99
3 0 25 1
3 1 26 2
3 2 27 3
3 3 28 4
3 4 29 5
3 5 30 6
3 6 31 7
3 7 32 8
3 8 33 9
3 9 34 10
3 10 35 11
3 11 36 12
3 12 37 13
3 13 38 14
3 14 39 15
3 15 40 16
3 16 41 17
3 17 42 18
3 18 43 19
3 19 44 20
3 20 45 21
3 21 46 22
3 22 47 23
3 23 48 24
3 24 49 25
3 25 0 26
3 26 1 27
3 27 2 28
3 28 3 29
3 29 4 30
3 30 5 31
3 31 6 32
3 32 7 33
3 33 8 34
3 34 9 35
3 35 10 36
3 36 11 37
3 37 12 38
3 38 13 39
3 39 14 40
3 40 15 41
3 41 16 42
3 42 17 43
3 43 18 44
3 44 19 45
3 45 20 46
3 46 21 47
3 47 22 48
3 48 23 49
3 49 24 0
3 51 75 50
3 52 76 51
3 53 77 52
3 54 78 53
3 55 79 54
3 56 80 55
3 57 81 56
3 58 82 57
3 59 83 58
3 60 84 59
3 61 85 60
3 62 86 61
3 63 87 62
3 64 88 63
3 65 89 64
3 66 90 65
3 67 91 66
3 68 92 67
3 69 93 68
3 70 94 69
3 71 95 70
3 72 96 71
3 73 97 72
3 74 98 73
3 75 99 74
3 76 50 75
3 77 51 76
3 78 52 77
3 79 53 78
3 80 54 79
3 81 55 80
3 82 56 81
3 83 57 82
3 84 58 83
3 85 59 84
3 86 60 85
3 87 61 86
3 88 62 87
3 89 63 88
3 90 64 89
3 91 65 90
3 92 66 91
3 93 67 92
3 94 68 93
3 95 69 94
3 96 70 95
3 97 71 96
3 98 72 97
3 99 73 98
3 50 74 99
