ply
format ascii 1.0
element vertex 100
property float x
property float y
property float z
element face 200
property list uchar int vertex_indices
end_header
10.000000 -16.000000 85.000000
9.921147 -14.308002 85.000000
9.685832 -12.642686 85.000000
9.297765 -11.030318 85.000000
8.763066 -9.496325 85.000000
8.090170 -8.064898 85.000000
7.289686 -6.758614 85.000000
6.374240 -5.598071 85.000000
5.358267 -4.601573 85.000000
4.257793 -3.784835 85.000000
3.090170 -3.160737 85.000000
1.873814 -2.739122 85.000000
0.627905 -2.526639 85.000000
-0.627905 -2.526639 85.000000
-1.873813 -2.739122 85.000000
-3.090170 -3.160737 85.000000
-4.257794 -3.784835 85.000000
-5.358267 -4.601573 85.000000
-6.374239 -5.598071 85.000000
-7.289686 -6.758614 85.000000
-8.090170 -8.064899 85.000000
-8.763066 -9.496324 85.000000
-9.297765 -11.030317 85.000000
-9.685832 -12.642686 85.000000
-9.921147 -14.308002 85.000000
-10.000000 -16.000002 85.000000
-9.921147 -17.691998 85.000000
-9.685832 -19.357313 85.000000
-9.297765 -20.969681 85.000000
-8.763066 -22.503675 85.000000
-8.090169 -23.935102 85.000000
-7.289687 -25.241385 85.000000
-6.374238 -26.401930 85.000000
-5.358270 -27.398426 85.000000
-4.257794 -28.215164 85.000000
-3.090171 -28.839262 85.000000
-1.873814 -29.260878 85.000000
-0.627905 -29.473360 85.000000
0.627906 -29.473360 85.000000
1.873814 -29.260878 85.000000
3.090171 -28.839262 85.000000
4.257795 -28.215164 85.000000
5.358266 -27.398428 85.000000
6.374238 -26.401930 85.000000
7.289685 -25.241386 85.000000
8.090170 -23.935102 85.000000
8.763066 -22.503675 85.000000
9.297765 -20.969681 85.000000
9.685832 -19.357313 85.000000
9.921147 -17.691998 85.000000
10.000000 -16.000000 145.000000
9.921147 -14.771734 145.000000
9.685832 -13.562839 145.000000
9.297765 -12.392379 145.000000
8.763066 -11.278813 145.000000
8.090170 -10.239704 145.000000
7.289686 -9.291438 145.000000
6.374240 -8.448970 145.000000
5.358267 -7.725586 145.000000
4.257793 -7.132695 145.000000
3.090170 -6.679646 145.000000
1.873814 -6.373585 145.000000
0.627905 -6.219338 145.000000
-0.627905 -6.219338 145.000000
-1.873813 -6.373585 145.000000
-3.090170 -6.679646 145.000000
-4.257794 -7.132695 145.000000
-5.358267 -7.725586 145.000000
-6.374239 -8.448970 145.000000
-7.289686 -9.291438 145.000000
-8.090170 -10.239705 145.000000
-8.763066 -11.278813 145.000000
-9.297765 -12.392379 145.000000
-9.685832 -13.562839 145.000000
-9.921147 -14.771734 145.000000
-10.000000 -16.000000 145.000000
-9.921147 -17.228264 145.000000
-9.685832 -18.437160 145.000000
-9.297765 -19.607620 145.000000
-8.763066 -20.721186 145.000000
-8.090169 -21.760296 145.000000
-7.289687 -22.708561 145.000000
-6.374238 -23.551031 145.000000
-5.358270 -24.274412 145.000000
-4.257794 -24.867304 145.000000
-3.090171 -25.320354 145.000000
-1.873814 -25.626415 145.000000
-0.627905 -25.780663 145.000000
0.627906 -25.780663 145.000000
1.873814 -25.626415 145.000000
3.090171 -25.320354 145.000000
4.257795 -24.867304 145.000000
5.358266 -24.274416 145.000000
6.374238 -23.551031 145.000000
7.289685 -22.708563 145.000000
8.090170 -21.760296 145.000000
8.763066 -20.721186 145.000000
9.297765 -19.607620 145.000000
9.685832 -18.437160 145.000000
9.921147 -17.228264 145.000000
3 0 1 50
3 1 51 50
3 1 2 51
3 2 52 51
3 2 3 52
3 3 53 52
3 3 4 53
3 4 54 53
3 4 5 54
3 5 55 54
3 5 6 55
3 6 56 55
3 6 7 56
3 7 57 56
3 7 8 57
3 8 58 57
3 8 9 58
3 9 59 58
3 9 10 59
3 10 60 59
3 10 11 60
3 11 61 60
3 11 12 61
3 12 62 61
3 12 13 62
3 13 63 62
3 13 14 63
3 14 64 63
3 14 15 64
3 15 65 64
3 15 16 65
3 16 66 65
3 16 17 66
3 17 67 66
3 17 18 67
3 18 68 67
3 18 19 68
3 19 69 68
3 19 20 69
3 20 70 69
3 20 21 70
3 21 71 70
3 21 22 71
3 22 72 71
3 22 23 72
3 23 73 72
3 23 24 73
3 24 74 73
3 24 25 74
3 25 75 74
3 25 26 75
3 26 76 75
3 26 27 76
3 27 77 76
3 27 28 77
3 28 78 77
3 28 29 78
3 29 79 78
3 29 30 79
3 30 80 79
3 30 31 80
3 31 81 80
3 31 32 81
3 32 82 81
3 32 33 82
3 33 83 82
3 33 34 83
3 34 84 83
3 34 35 84
3 35 85 84
3 35 36 85
3 36 86 85
3 36 37 86
3 37 87 86
3 37 38 87
3 38 88 87
3 38 39 88
3 39 89 88
3 39 40 89
3 40 90 89
3 40 41 90
3 41 91 90
3 41 42 91
3 42 92 91
3 42 43 92
3 43 93 92
3 43 44 93
3 44 94 93
3 44 45 94
3 45 95 94
3 45 46 95
3 46 96 95
3 46 47 96
3 47 97 96
3 47 48 97
3 48 98 97
3 48 49 98
3 49 99 98
3 49 0 99
3 0 50 99
3 0 25 1
3 1 26 2
3 2 27 3
3 3 28 4
3 4 29 5
3 5 30 6
3 6 31 7
3 7 32 8
3 8 33 9
3 9 34 10
3 10 35 11
3 11 36 12
3 12 37 13
3 13 38 14
3 14 39 15
3 15 40 16
3 16 41 17
3 17 42 18
3 18 43 19
3 19 44 20
3 20 45 21
3 21 46 22
3 22 47 23
3 23 48 24
3 24 49 25
3 25 0 26
3 26 1 27
3 27 2 28
3 28 3 29
3 29 4 30
3 30 5 31
3 31 6 32
3 32 7 33
3 33 8 34
3 34 9 35
3 35 10 36
3 36 11 37
3 37 12 38
3 38 13 39
3 39 14 40
3 40 15 41
3 41 16 42
3 42 17 43
3 43 18 44
3 44 19 45
3 45 20 46
3 46 21 47
3 47 22 48
3 48 23 49
3 49 24 0
3 51 75 50
3 52 76 51
3 53 77 52
3 54 78 53
3 55 79 54
3 56 80 55
3 57 81 56
3 58 82 57
3 59 83 58
3 60 84 59
3 61 85 60
3 62 86 61
3 63 87 62
3 64 88 63
3 65 89 64
3 66 90 65
3 67 91 66
3 68 92 67
3 69 93 68
3 70 94 69
3 71 95 70
3 72 96 71
3 73 97 72
3 74 98 73
3 75 99 74
3 76 50 75
3 77 51 76
3 78 52 77
3 79 53 78
3 80 54 79
3 81 55 80
3 82 56 81
3 83 57 82
3 84 58 83
3 85 59 84
3 86 60 85
3 87 61 86
3 88 62 87
3 89 63 88
3 90 64 89
3 91 65 90
3 92 66 91
3 93 67 92
3 94 68 93
3 95 69 94
3 96 70 95
3 97 71 96
3 98 72 97
3 99 73 98
3 50 74 99
