ply
format ascii 1.0
element vertex 52
property float x
property float y
property float z
element face 100
property list uchar int vertex_indices
end_header
0.000000 0.000000 0.000000
10.000000 0.000000 0.000000
9.921147 1.253332 0.000000
9.685832 2.486899 0.000000
9.297765 3.681246 0.000000
8.763066 4.817537 0.000000
8.090170 5.877852 0.000000
7.289686 6.845471 0.000000
6.374240 7.705132 0.000000
5.358267 8.443279 0.000000
4.257793 9.048270 0.000000
3.090170 9.510565 0.000000
1.873814 9.822872 0.000000
0.627905 9.980268 0.000000
-0.627905 9.980268 0.000000
-1.873813 9.822872 0.000000
-3.090170 9.510565 0.000000
-4.257794 9.048270 0.000000
-5.358267 8.443279 0.000000
-6.374239 7.705132 0.000000
-7.289686 6.845471 0.000000
-8.090170 5.877852 0.000000
-8.763066 4.817538 0.000000
-9.297765 3.681246 0.000000
-9.685832 2.486899 0.000000
-9.921147 1.253332 0.000000
-10.000000 -0.000001 0.000000
-9.921147 -1.253331 0.000000
-9.685832 -2.486898 0.000000
-9.297765 -3.681246 0.000000
-8.763066 -4.817537 0.000000
-8.090169 -5.877853 0.000000
-7.289687 -6.845470 0.000000
-6.374238 -7.705134 0.000000
-5.358270 -8.443278 0.000000
-4.257794 -9.048270 0.000000
-3.090171 -9.510565 0.000000
-1.873814 -9.822872 0.000000
-0.627905 -9.980268 0.000000
0.627906 -9.980268 0.000000
1.873814 -9.822872 0.000000
3.090171 -9.510565 0.000000
4.257795 -9.048269 0.000000
5.358266 -8.443280 0.000000
6.374238 -7.705133 0.000000
7.289685 -6.845472 0.000000
8.090170 -5.877853 0.000000
8.763066 -4.817537 0.000000
9.297765 -3.681245 0.000000
9.685832 -2.486898 0.000000
9.921147 -1.253331 0.000000
0.000000 0.000000 20.000000
3 0 1 2
3 51 2 1
3 0 2 3
3 51 3 2
3 0 3 4
3 51 4 3
3 0 4 5
3 51 5 4
3 0 5 6
3 51 6 5
3 0 6 7
3 51 7 6
3 0 7 8
3 51 8 7
3 0 8 9
3 51 9 8
3 0 9 10
3 51 10 9
3 0 10 11
3 51 11 10
3 0 11 12
3 51 12 11
3 0 12 13
3 51 13 12
3 0 13 14
3 51 14 13
3 0 14 15
3 51 15 14
3 0 15 16
3 51 16 15
3 0 16 17
3 51 17 16
3 0 17 18
3 51 18 17
3 0 18 19
3 51 19 18
3 0 19 20
3 51 20 19
3 0 20 21
3 51 21 20
3 0 21 22
3 51 22 21
3 0 22 23
3 51 23 22
3 0 23 24
3 51 24 23
3 0 24 25
3 51 25 24
3 0 25 26
3 51 26 25
3 0 26 27
3 51 27 26
3 0 27 28
3 51 28 27
3 0 28 29
3 51 29 28
3 0 29 30
3 51 30 29
3 0 30 31
3 51 31 30
3 0 31 32
3 51 32 31
3 0 32 33
3 51 33 32
3 0 33 34
3 51 34 33
3 0 34 35
3 51 35 34
3 0 35 36
3 51 36 35
3 0 36 37
3 51 37 36
3 0 37 38
3 51 38 37
3 0 38 39
3 51 39 38
3 0 39 40
3 51 40 39
3 0 40 41
3 51 41 40
3 0 41 42
3 51 42 41
3 0 42 43
3 51 43 42
3 0 43 44
3 51 44 43
3 0 44 45
3 51 45 44
3 0 45 46
3 51 46 45
3 0 46 47
3 51 47 46
3 0 47 48
3 51 48 47
3 0 48 49
3 51 49 48
3 0 49 50
3 51 50 49
3 0 50 1
3 51 1 50
