ply
format ascii 1.0
element vertex 12
property float x
property float y
property float z
element face 24
property list uchar int vertex_indices
end_header
10.000000 0.000000 -2.500000
5.000000 8.660254 -2.500000
-5.000000 8.660254 -2.500000
-10.000000 -0.000001 -2.500000
-4.999999 -8.660254 -2.500000
4.999999 -8.660254 -2.500000
10.000000 0.000000 2.500000
5.000000 8.660254 2.500000
-5.000000 8.660254 2.500000
-10.000000 -0.000001 2.500000
-4.999999 -8.660254 2.500000
4.999999 -8.660254 2.500000
3 0 1 6
3 1 7 6
3 1 2 7
3 2 8 7
3 2 3 8
3 3 9 8
3 3 4 9
3 4 10 9
3 4 5 10
3 5 11 10
3 5 0 11
3 0 6 11
3 0 1 0
3 6 7 6
3 1 2 0
3 7 8 6
3 2 3 0
3 8 9 6
3 3 4 0
3 9 10 6
3 4 5 0
3 10 11 6
3 5 0 0
3 11 6 6
